<svg id="图层_1" data-name="图层 1" xmlns="http://www.w3.org/2000/svg" viewBox="0 0 189.96 184.02"><defs><style>.cls-1{fill:#fff;}.cls-2{fill:#231815;}</style></defs><title>shengcheng</title><path class="cls-1" d="M107.45,18.53c2.85.12,4.83,2.5,5.81,5.86,1.52,5.28,3,10.57,4.38,15.92,4,15.76,12.46,27.81,27.14,34.86,5.89,2.83,11.58,6,17.41,8.9,3.32,1.67,5.47,4.22,4.71,8.3S163,99,159.13,100.6c-7.18,3.08-14.35,6.21-21.53,9.33a80.09,80.09,0,0,0-37.58,33c-3.5,5.81-7.33,11.48-11,17.24-2.19,3.48-5,5.62-9,5.76s-6-2.27-7-5.65c-2.49-8.26-4.71-16.65-7.56-24.73C61,123,52.18,114.49,40.32,108.78c-5.61-2.69-11.08-5.62-16.64-8.38-3.2-1.59-5.09-4.14-4.4-8,.72-4.06,3.53-6.63,7.59-8.25,6.9-2.78,13.72-5.86,20.58-8.79,16.25-7,28.81-18.18,38.12-33.27C89.23,36.15,93,30.27,96.8,24.4,99.37,20.44,102.73,18.43,107.45,18.53Z"/><path class="cls-2" d="M89.69,34.1c2.37.1,4,2.07,4.81,4.86,1.27,4.38,2.51,8.77,3.64,13.2,3.31,13.07,10.34,23.07,22.5,28.91,4.89,2.35,9.61,5,14.45,7.38,2.75,1.38,4.53,3.5,3.9,6.88s-3.24,5.46-6.44,6.83q-8.94,3.84-17.86,7.74a66.4,66.4,0,0,0-31.16,27.37c-2.9,4.83-6.08,9.52-9.09,14.3-1.81,2.89-4.19,4.66-7.47,4.78s-5-1.88-5.83-4.69c-2.06-6.85-3.9-13.8-6.27-20.5C51.2,120.77,43.85,113.68,34,109c-4.65-2.24-9.18-4.67-13.8-7-2.65-1.32-4.21-3.43-3.64-6.63.59-3.37,2.93-5.5,6.29-6.85,5.72-2.29,11.38-4.85,17.07-7.28A67.8,67.8,0,0,0,71.54,53.64c3-4.93,6.17-9.81,9.32-14.68A9.6,9.6,0,0,1,89.69,34.1Z"/><path class="cls-2" d="M154.18,27.67c.93,0,1.57.81,1.88,1.9.5,1.71,1,3.43,1.43,5.16,1.29,5.11,4,9,8.79,11.31,1.91.92,3.76,1.93,5.65,2.88a2.37,2.37,0,0,1,1.53,2.69,3.76,3.76,0,0,1-2.52,2.67c-2.33,1-4.66,2-7,3A25.94,25.94,0,0,0,151.77,68c-1.13,1.89-2.37,3.72-3.55,5.59a3.52,3.52,0,0,1-2.92,1.87A2.17,2.17,0,0,1,143,73.64c-.81-2.68-1.53-5.4-2.45-8a15.05,15.05,0,0,0-8.16-8.68c-1.82-.88-3.59-1.83-5.39-2.72a2.28,2.28,0,0,1-1.43-2.6A3.55,3.55,0,0,1,128.05,49c2.24-.9,4.45-1.9,6.68-2.85a26.52,26.52,0,0,0,12.36-10.79c1.18-1.93,2.41-3.83,3.64-5.74A3.76,3.76,0,0,1,154.18,27.67Z"/></svg>